<?xml version="1.0" encoding="UTF-8" standalone="no"?>
<!DOCTYPE svg PUBLIC "-//W3C//DTD SVG 20010904//EN" "http://www.w3.org/TR/2001/REC-SVG-20010904/DTD/svg10.dtd">
<svg version="1.0" xmlns="http://www.w3.org/2000/svg" width="300.000000pt" height="300.000000pt" viewBox="0 0 300.000000 300.000000" preserveAspectRatio="xMidYMid meet">
<metadata>
Created by potrace 1.11, written by Peter Selinger 2001-2013
</metadata>
<g transform="translate(0.000000,300.000000) scale(0.100000,-0.100000)" fill="#000000" stroke="none">
<path d="M1369 2996 c-2 -2 -29 -6 -59 -10 -185 -19 -369 -81 -577 -196 -24 -13 -80 -52 -125 -86 -329 -248 -533 -590 -593 -993 -19 -126 -12 -372 13 -497 122 -605 581 -1064 1186 -1186 131 -26 374 -32 501 -12 378 60 693 237 939 527 131 155 263 416 302 597 31 147 36 193 39 330 2 94 -3 191 -11 245 -79 528 -432 977 -928 1179 -60 25 -233 73 -311 86 -63 12 -368 24 -376 16z m339 -251 c47 -9 56 -21 15 -23 -112 -4 -360 -75 -501 -144 -75 -37 -228 -130 -242 -147 -3 -3 -22 -19 -42 -34 -103 -76 -276 -272 -328 -370 -14 -26 -30 -46 -37 -45 -6 2 -47 34 -91 73 l-80 70 61 88 c190 278 480 465 815 527 100 18 338 21 430 5z m588 -270 c210 -174 355 -400 423 -658 29 -111 35 -168 36 -317 0 -149 -5 -199 -34 -311 -29 -113 -47 -152 -68 -145 -10 3 -42 8 -72 11 -30 4 -63 9 -75 11 -43 8 -126 27 -126 29 0 1 9 28 20 61 22 63 60 203 66 244 2 14 7 50 12 80 10 65 8 304 -2 375 -32 218 -119 454 -229 618 -25 37 -42 67 -38 67 4 0 43 -29 87 -65z m-506 10 c0 -3 -27 -38 -61 -78 -186 -221 -379 -512 -516 -779 l-40 -78 -114 71 c-131 81 -288 191 -289 201 0 15 73 127 136 206 146 183 360 328 599 406 97 31 285 65 285 51z m330 -275 c38 -76 93 -236 104 -300 18 -108 21 -146 20 -255 0 -109 -7 -196 -19 -235 -2 -8 -7 -30 -10 -49 -8 -45 -61 -201 -74 -214 -6 -6 -21 -5 -43 2 -172 54 -355 116 -363 121 -5 4 -40 19 -76 33 -110 43 -269 119 -269 129 0 9 51 111 103 203 130 232 328 511 491 692 l39 43 30 -48 c17 -26 47 -81 67 -122z m-1750 -376 c19 -17 49 -44 67 -60 l32 -29 -29 -101 c-15 -56 -31 -119 -35 -140 -4 -22 -8 -50 -11 -64 -9 -55 -12 -319 -3 -380 16 -113 19 -134 30 -174 6 -21 9 -40 7 -42 -4 -4 -78 139 -101 196 -8 19 -24 64 -35 100 -19 62 -25 88 -40 175 -4 22 -7 112 -6 200 1 154 6 193 45 338 11 43 8 43 79 -19z m430 -330 c58 -38 141 -92 185 -119 44 -27 82 -50 84 -51 2 -2 -17 -56 -43 -121 -64 -166 -111 -313 -157 -493 -22 -85 -41 -159 -42 -165 -5 -15 -75 110 -112 200 -36 87 -69 201 -81 286 -11 68 -11 286 -2 361 13 97 39 189 52 180 6 -4 59 -39 116 -78z m542 -312 c75 -41 354 -154 503 -204 88 -29 162 -54 164 -55 7 -5 -48 -77 -101 -133 -220 -231 -479 -358 -807 -395 l-54 -6 7 49 c25 193 206 762 241 762 8 0 29 -8 47 -18z m1083 -353 c69 -12 125 -26 125 -30 0 -17 -101 -140 -175 -212 -143 -141 -376 -275 -541 -312 -125 -27 -173 -35 -254 -39 -76 -5 -90 -3 -70 6 163 74 245 116 309 159 156 106 312 261 409 407 26 39 41 52 54 49 10 -3 74 -15 143 -28z"/>
</g>
</svg>